<svg version="1.2" xmlns="http://www.w3.org/2000/svg" viewBox="0 0 27 38" width="27" height="38"><style>.a{opacity:.57;fill:#fcfefe}.b{opacity:1;fill:#fcfefe}.c{opacity:1;fill:#fcab0b}.d{opacity:1;fill:#fc744c}.e{opacity:1;fill:#4ea90d}.f{opacity:1;fill:#157ed1}.g{opacity:.32;fill:#fdfefe}.h{opacity:.26;fill:#fcfefe}.i{opacity:.51;fill:#fdfefe}</style><path class="a" d="m13 0.5c0 0.3 0.2 0.5 0.5 0.5 0.3 0 0.5-0.2 0.5-0.5 0-0.3-0.2-0.5-0.5-0.5-0.3 0-0.5 0.2-0.5 0.5z"/><path class="b" d="m9 3c-1.9 1.1-4.7 1.9-6.3 2h-2.7c0 18 0.4 21.3 1.8 23.9 1.1 2.2 3.5 4.4 7 6.3l5.2 2.8c8.5-5.3 10.8-7.7 11.7-9.7 0.8-2 1.3-7.3 1.3-13.3v-10c-3.9 0-6.8-0.9-9-2-2.2-1.1-4.3-2-4.8-2-0.4 0.1-2.3 0.9-4.2 2z"/><path class="c" d="m11.3 24.5c-0.5 0.9-0.3 2.1 0.4 2.8 0.7 0.7 1.9 0.9 2.8 0.5 0.8-0.5 1.4-1.6 1.2-2.5-0.1-1-1-1.9-1.9-2.1-0.9-0.2-2 0.4-2.5 1.3z"/><path class="d" d="m17.3 18.5c-0.5 0.9-0.3 2.1 0.4 2.8 0.7 0.7 1.9 0.9 2.8 0.5 0.8-0.5 1.4-1.6 1.2-2.5-0.1-1-1-1.9-1.9-2.1-0.9-0.2-2 0.4-2.5 1.3z"/><path class="e" d="m5.3 18.5c-0.5 0.9-0.3 2.1 0.4 2.8 0.7 0.7 1.9 0.9 2.8 0.5 0.8-0.5 1.4-1.6 1.2-2.5-0.1-1-1-1.9-1.9-2.1-0.9-0.2-2 0.4-2.5 1.3z"/><path class="f" d="m11.3 12.5c-0.5 0.9-0.3 2.1 0.4 2.8 0.7 0.7 1.9 0.9 2.8 0.5 0.8-0.5 1.4-1.6 1.2-2.5-0.1-1-1-1.9-1.9-2.1-0.9-0.2-2 0.4-2.5 1.3z"/><path class="g" d="m0 26.5c0 0.3 0.2 0.5 0.5 0.5 0.3 0 0.5-0.2 0.5-0.5 0-0.3-0.2-0.5-0.5-0.5-0.3 0-0.5 0.2-0.5 0.5z"/><path class="g" d="m26 26.5c0 0.3 0.2 0.5 0.5 0.5 0.3 0 0.5-0.2 0.5-0.5 0-0.3-0.2-0.5-0.5-0.5-0.3 0-0.5 0.2-0.5 0.5z"/><path class="h" d="m10 36.5c0 0.3 0.2 0.5 0.5 0.5 0.3 0 0.5-0.2 0.5-0.5 0-0.3-0.2-0.5-0.5-0.5-0.3 0-0.5 0.2-0.5 0.5z"/><path class="h" d="m16 36.5c0 0.3 0.2 0.5 0.5 0.5 0.3 0 0.5-0.2 0.5-0.5 0-0.3-0.2-0.5-0.5-0.5-0.3 0-0.5 0.2-0.5 0.5z"/><path class="i" d="m12 37.5c0 0.3 0.2 0.5 0.5 0.5 0.3 0 0.5-0.2 0.5-0.5 0-0.3-0.2-0.5-0.5-0.5-0.3 0-0.5 0.2-0.5 0.5z"/></svg>